<?xml version="1.0" standalone="no"?>
<!DOCTYPE svg PUBLIC "-//W3C//DTD SVG 20010904//EN"
 "http://www.w3.org/TR/2001/REC-SVG-20010904/DTD/svg10.dtd">
<svg version="1.0" xmlns="http://www.w3.org/2000/svg"
 width="165.000000pt" height="165.000000pt" viewBox="0 0 165.000000 165.000000"
 preserveAspectRatio="xMidYMid meet">
<metadata>
Created by potrace 1.14, written by Peter Selinger 2001-2017
</metadata>
<g transform="translate(0.000000,165.000000) scale(0.100000,-0.100000)"
fill="#000000" stroke="none">
<path d="M1000 1540 c0 -5 5 -10 10 -10 6 0 10 5 10 10 0 6 -4 10 -10 10 -5 0
-10 -4 -10 -10z"/>
<path d="M495 1507 c13 -41 87 -207 96 -213 11 -6 50 14 66 35 17 23 16 77 -3
117 -22 46 -67 76 -121 80 -42 3 -44 2 -38 -19z m73 -8 c17 -6 38 -21 47 -35
22 -35 27 -107 7 -135 -15 -21 -16 -20 -47 57 -36 87 -48 124 -42 124 2 0 18
-5 35 -11z"/>
<path d="M827 1485 c-9 -19 -12 -35 -7 -35 6 0 13 6 16 14 3 8 15 14 25 13 15
-1 19 -6 14 -22 -3 -11 -9 -36 -12 -56 -5 -32 -2 -38 18 -45 35 -11 59 -12 65
-2 3 5 14 2 24 -7 10 -9 24 -14 29 -10 6 3 11 1 11 -6 0 -7 11 -10 30 -7 20 3
30 0 30 -8 0 -19 20 -28 33 -15 9 9 9 14 -1 20 -16 10 -16 9 8 67 26 59 25 68
-5 84 -34 18 -67 -5 -91 -64 -11 -25 -25 -46 -31 -46 -16 0 -16 -4 1 56 27 95
29 109 13 96 -8 -7 -22 -38 -31 -70 -19 -67 -51 -97 -65 -60 -7 20 9 103 26
131 7 12 -11 8 -35 -9 -20 -14 -23 -14 -28 0 -9 24 -19 19 -37 -19z m273 -42
c0 -21 -48 -103 -60 -103 -14 0 -12 47 1 73 27 52 59 68 59 30z"/>
<path d="M702 1498 c-20 -20 -15 -115 8 -138 24 -24 34 -25 52 -6 11 10 19 11
32 4 13 -8 21 -7 27 3 13 21 11 29 -5 23 -15 -6 -30 34 -38 96 -2 20 -9 26
-33 28 -17 2 -36 -3 -43 -10z m54 -78 c2 -35 -2 -50 -11 -50 -23 0 -44 82 -30
118 12 31 39 -13 41 -68z"/>
<path d="M432 1283 c-102 -100 -152 -192 -180 -333 -12 -58 -8 -198 5 -211 9
-9 11 6 6 69 -7 101 16 210 62 302 36 71 104 156 147 186 16 11 28 22 28 27 0
17 -23 4 -68 -40z"/>
<path d="M1180 1326 c0 -3 27 -31 60 -62 124 -118 179 -253 177 -429 -2 -113
7 -139 18 -50 9 71 1 169 -20 225 -8 25 -18 53 -20 63 -10 44 -66 127 -125
187 -56 56 -90 81 -90 66z"/>
<path d="M655 1234 c4 -33 10 -63 13 -69 4 -5 8 -17 9 -25 1 -9 14 -42 28 -75
39 -88 55 -139 46 -148 -4 -4 -25 0 -46 9 -49 20 -175 31 -175 15 0 -6 3 -10
8 -9 4 1 23 -3 42 -10 28 -10 42 -24 63 -65 45 -87 48 -102 32 -148 -18 -50
-18 -49 -3 -49 6 0 9 3 5 6 -3 4 11 25 33 48 21 22 47 58 57 78 18 38 53 53
53 23 0 -8 -1 -16 -2 -17 -8 -11 99 -179 153 -241 71 -81 76 -60 33 147 -13
66 -33 135 -44 153 l-20 34 25 26 c29 32 25 41 -24 49 -34 5 -40 11 -50 43 -6
20 -26 54 -45 76 -20 22 -39 45 -43 50 -61 77 -90 108 -119 130 l-36 27 7 -58z"/>
<path d="M262 655 c-54 -23 -64 -91 -16 -109 26 -10 28 0 5 23 -22 22 -28 51
-11 51 5 0 24 -9 42 -20 44 -26 74 -26 81 2 7 26 -8 58 -28 58 -7 0 -19 2 -27
5 -7 2 -28 -2 -46 -10z m77 -24 c7 -5 9 -11 5 -14 -13 -8 -64 4 -64 14 0 11
41 11 59 0z"/>
<path d="M1330 662 c-44 -16 -44 -59 2 -97 33 -28 74 -32 103 -11 16 11 17 18
8 47 -9 26 -11 29 -12 12 -2 -35 -2 -37 -13 -50 -10 -12 -41 -6 -33 6 7 12
-14 78 -28 89 -6 5 -19 7 -27 4z m20 -47 c7 -14 10 -28 6 -32 -9 -9 -36 25
-36 44 0 21 16 15 30 -12z"/>
<path d="M337 548 c-37 -24 -69 -48 -71 -55 -6 -16 18 -7 66 25 20 13 47 22
60 20 21 -3 19 -6 -17 -25 -52 -27 -79 -57 -68 -76 5 -10 14 -12 28 -6 11 4
14 8 8 8 -26 2 -11 22 37 52 54 33 58 40 36 59 -8 6 -12 18 -9 26 7 20 4 19
-70 -28z"/>
<path d="M1250 550 c0 -13 -5 -18 -15 -14 -33 13 -13 -11 48 -60 24 -19 37
-38 37 -53 0 -13 -3 -23 -7 -23 -4 0 -31 23 -59 51 -70 69 -87 58 -21 -13 37
-39 59 -56 73 -53 10 2 22 4 27 4 4 1 7 10 7 21 0 11 4 20 10 20 17 0 0 25
-31 45 -28 18 -68 75 -53 75 3 0 24 -16 47 -35 40 -35 70 -44 82 -25 3 5 1 18
-4 27 -6 10 -11 12 -11 6 0 -21 -20 -15 -60 17 -44 35 -70 39 -70 10z"/>
<path d="M1097 533 c-16 -16 -10 -35 45 -136 41 -74 73 -102 102 -91 18 7 21
49 4 60 -6 4 -9 3 -6 -2 3 -5 2 -18 -2 -29 -6 -17 -10 -14 -38 24 -18 24 -32
54 -32 66 0 13 -7 40 -16 61 -20 47 -40 64 -57 47z m42 -78 c0 -5 -6 -1 -14 9
-8 11 -15 27 -15 35 1 17 29 -26 29 -44z"/>
<path d="M1160 531 c0 -6 5 -13 10 -16 6 -3 10 1 10 9 0 9 -4 16 -10 16 -5 0
-10 -4 -10 -9z"/>
<path d="M536 437 c-70 -72 -99 -124 -84 -150 11 -21 29 -22 54 -1 18 15 18
15 -8 9 -16 -3 -28 -3 -28 0 0 24 39 69 94 110 66 48 82 77 50 89 -12 5 -35
-12 -78 -57z m44 8 c-13 -14 -26 -23 -28 -20 -3 3 5 16 18 30 13 14 26 23 28
20 3 -3 -5 -16 -18 -30z"/>
<path d="M430 478 c-35 -13 -70 -48 -70 -69 0 -16 30 -42 41 -36 3 1 1 -2 -2
-7 -4 -4 -29 -12 -56 -17 -73 -14 -101 -28 -112 -59 -5 -16 -7 -31 -4 -34 16
-16 63 -2 108 32 28 21 59 41 69 45 10 4 17 10 14 12 -3 3 15 25 39 50 25 24
43 50 41 56 -8 24 -42 38 -68 27z m40 -17 c0 -13 -59 -61 -76 -61 -23 0 -16
27 14 49 28 21 62 28 62 12z m-160 -166 c-36 -27 -64 -33 -58 -12 3 6 20 17
39 24 52 18 56 15 19 -12z"/>
<path d="M755 423 c-14 -68 -23 -116 -30 -168 -3 -22 -8 -45 -10 -52 -2 -6 2
-17 10 -23 10 -8 15 -1 25 39 6 28 19 56 27 63 14 12 15 8 9 -33 -5 -36 -3
-50 11 -67 21 -25 37 -19 48 18 6 20 5 23 -6 13 -22 -22 -26 -15 -25 45 1 55
0 57 -24 57 l-26 0 9 64 c9 72 -5 108 -18 44z"/>
<path d="M636 431 c-4 -7 -5 -15 -2 -18 9 -9 19 4 14 18 -4 11 -6 11 -12 0z"/>
<path d="M1074 395 c-5 -12 -10 -13 -20 -4 -24 20 -17 -6 23 -84 23 -44 38
-65 41 -55 2 9 -4 31 -13 48 -20 38 -27 69 -19 82 4 6 17 -15 31 -45 30 -67
73 -87 73 -34 0 16 -3 17 -15 7 -12 -10 -19 -3 -42 44 -27 56 -48 70 -59 41z"/>
<path d="M588 357 c-43 -67 -49 -91 -31 -116 9 -14 21 -20 30 -16 9 3 24 -2
34 -11 24 -21 57 -10 70 24 17 43 27 122 16 122 -18 0 -110 -74 -98 -78 7 -2
26 6 43 18 16 12 31 20 34 18 2 -2 -1 -21 -7 -42 -11 -42 -33 -55 -60 -38 -10
7 -28 12 -39 12 -19 0 -18 5 15 70 19 38 35 72 35 75 0 16 -18 0 -42 -38z"/>
<path d="M960 345 c-8 -10 -11 -33 -8 -66 10 -96 79 -122 86 -31 6 81 -42 140
-78 97z m38 -29 c3 -12 -1 -17 -10 -14 -7 3 -15 13 -16 22 -3 12 1 17 10 14 7
-3 15 -13 16 -22z m17 -87 c-9 -27 -24 -23 -35 7 -14 35 -13 42 8 46 20 4 35
-26 27 -53z"/>
</g>
</svg>
