<svg width="79" height="78" viewBox="0 0 79 78" fill="none" xmlns="http://www.w3.org/2000/svg">
<path d="M55.6781 59.6423L22.9323 59.6148C20.5128 59.6148 18.5882 57.6902 18.5882 55.2707L18.5607 22.5248C18.5882 20.1328 20.5403 18.1807 22.9048 18.1807L55.6781 18.1807C58.0977 18.1807 60.0223 20.1053 60.0223 22.5248L60.0223 55.2982C60.0223 57.6627 58.0702 59.6148 55.6781 59.6423Z" fill="#91778C"/>
<path fill-rule="evenodd" clip-rule="evenodd" d="M47.4819 31.8121C47.383 32.3725 47.2512 33.0978 47.0863 33.823C46.1413 38.2844 45.1963 42.7349 44.2513 47.1743C44.1853 47.438 44.1194 47.7018 44.0205 47.9325C43.7568 48.427 43.3612 48.6248 42.8337 48.46C42.57 48.3611 42.3063 48.2292 42.0755 48.0644C40.658 47.0095 39.2404 45.9546 37.8229 44.8996C37.4602 44.6359 37.4273 44.6359 37.0976 44.9656C36.4053 45.6249 35.746 46.3172 35.0207 46.9765C34.8229 47.1414 34.5922 47.3062 34.3614 47.3721C33.8669 47.5369 33.5702 47.3721 33.4054 46.8776C32.812 45.0974 32.2186 43.2843 31.6582 41.5041C31.5263 41.1415 31.3285 40.9437 30.9659 40.8448C29.6143 40.4163 28.2297 39.9877 26.8451 39.5591C26.6473 39.4932 26.4496 39.3943 26.2518 39.2954C25.9221 39.0646 25.8562 38.702 26.1528 38.4712C26.4825 38.2075 26.8451 37.9768 27.2078 37.8119C28.922 37.1526 30.6363 36.4933 32.3505 35.834C36.8559 34.0977 41.3502 32.3615 45.8336 30.6253C45.8996 30.6033 45.9655 30.5814 46.0314 30.5594C46.9215 30.2627 47.5149 30.6913 47.4819 31.8121ZM33.9988 45.8557C34.0208 45.8557 34.0427 45.8557 34.0647 45.8557C34.1526 44.8887 34.2406 43.9107 34.3285 42.9217C34.3614 42.559 34.4603 42.2624 34.724 42.0316C35.6691 41.1965 36.6031 40.3613 37.5262 39.5262C39.1964 38.0097 40.8777 36.4933 42.57 34.9768C42.8997 34.6692 43.2293 34.3615 43.559 34.0538C43.6249 34.0208 43.6249 33.9219 43.6249 33.823C43.6249 33.7901 43.493 33.7571 43.4271 33.7571C43.1963 33.856 42.9656 33.9219 42.7678 34.0538C40.4382 35.5043 38.1086 36.9768 35.779 38.4712C34.724 39.1306 33.6691 39.7899 32.6142 40.4492C32.4164 40.5811 32.2845 40.713 32.4164 41.0096C32.5153 41.2734 32.5813 41.5371 32.6802 41.8008C33.1197 43.1634 33.5593 44.515 33.9988 45.8557Z" fill="white"/>
</svg>
