<svg width="79" height="78" viewBox="0 0 79 78" fill="none" xmlns="http://www.w3.org/2000/svg">
<path d="M55.8826 59.6423L23.1367 59.6148C20.7172 59.6148 18.7926 57.6902 18.7926 55.2707L18.7651 22.5248C18.7926 20.1328 20.7447 18.1807 23.1093 18.1807L55.8826 18.1807C58.3021 18.1807 60.2267 20.1053 60.2267 22.5248L60.2267 55.2982C60.2267 57.6627 58.2746 59.6148 55.8826 59.6423Z" fill="#91778C"/>
<path fill-rule="evenodd" clip-rule="evenodd" d="M49.4923 37.4975C49.4923 42.7391 45.2397 46.9917 39.9981 46.9917C38.4157 46.9917 36.8333 46.5961 35.4488 45.8379L30.5038 47.3873L31.9214 42.4753C30.9983 40.9919 30.5038 39.2776 30.5038 37.4975C30.5038 32.2558 34.7565 28.0032 39.9981 28.0032C45.2397 28.0032 49.4923 32.2558 49.4923 37.4975ZM47.91 37.4975C47.91 33.1459 44.3496 29.5856 39.9981 29.5856C35.6466 29.5856 32.0862 33.1459 32.0862 37.4975C32.0862 39.0798 32.5807 40.5963 33.4378 41.9149L33.6686 42.2116L32.8444 44.9808L35.6466 44.0907L35.9433 44.2885C37.163 45.0137 38.5805 45.4093 39.9981 45.4093C44.3496 45.4093 47.91 41.849 47.91 37.4975Z" fill="white"/>
<path d="M42.4915 39.2541C42.6322 39.3083 42.8343 39.4344 43.0586 39.6267C43.2806 39.8169 43.4841 40.0374 43.6258 40.2314C43.6772 40.3016 43.7157 40.3619 43.7428 40.4104C43.7239 40.4364 43.6995 40.4674 43.6688 40.5032C43.5388 40.6549 43.3503 40.8301 43.1402 41.0052C42.9341 41.177 42.7253 41.3336 42.5666 41.4483C42.5426 41.4656 42.5199 41.4818 42.4987 41.497C42.0418 41.4406 41.3539 41.209 40.5966 40.8303C39.7403 40.4021 38.92 39.8488 38.4132 39.3419C37.9056 38.8344 37.3436 38.0049 36.9066 37.1428C36.522 36.384 36.2867 35.7024 36.2268 35.2594C36.2416 35.2393 36.2573 35.2178 36.274 35.1953C36.3918 35.0364 36.5526 34.8273 36.7286 34.6207C36.9078 34.4103 37.0873 34.2208 37.2426 34.0898C37.2816 34.0569 37.3151 34.0311 37.3429 34.0113C37.3917 34.0385 37.4526 34.0773 37.5237 34.1293C37.7177 34.271 37.9382 34.4745 38.1284 34.6965C38.3183 34.918 38.4437 35.1179 38.4989 35.2583C38.3791 35.361 38.2666 35.4306 38.1328 35.5135C38.0627 35.5569 37.9867 35.6039 37.9008 35.6612C37.7689 35.7491 37.5879 35.8816 37.4467 36.0832C37.2918 36.3045 37.2182 36.5589 37.2182 36.837C37.2182 37.3578 37.4726 37.8122 37.7236 38.1562C37.9824 38.5108 38.3161 38.8512 38.61 39.1451L38.6286 39.1637C38.9119 39.447 39.2382 39.7734 39.5751 40.026C39.912 40.2787 40.36 40.5369 40.8851 40.5369C41.1636 40.5369 41.4172 40.4631 41.6379 40.3094C41.8383 40.1699 41.9716 39.9908 42.0601 39.8617C42.1117 39.7864 42.1557 39.7182 42.1969 39.6544C42.2912 39.5081 42.3705 39.3851 42.4915 39.2541ZM42.4062 39.2289C42.406 39.2287 42.4091 39.2288 42.416 39.2303C42.4099 39.2299 42.4064 39.2292 42.4062 39.2289ZM38.5262 35.3489C38.5259 35.3487 38.5252 35.3452 38.5248 35.3391C38.5263 35.346 38.5264 35.3491 38.5262 35.3489ZM37.4263 33.9608C37.4262 33.9609 37.4247 33.9616 37.4217 33.9627C37.4248 33.9613 37.4263 33.9607 37.4263 33.9608ZM43.7865 40.5024C43.7864 40.5024 43.7862 40.5016 43.7857 40.5C43.7863 40.5016 43.7865 40.5024 43.7865 40.5024ZM43.7931 40.3309C43.7942 40.3279 43.7949 40.3264 43.795 40.3264C43.7951 40.3263 43.7946 40.3278 43.7931 40.3309Z" fill="white" stroke="white" stroke-width="1.4"/>
</svg>
